<svg width="84" height="84" fill="none" xmlns="http://www.w3.org/2000/svg"><g stroke-width="2"><circle r="24" transform="scale(-1 1) rotate(45 -57 -23)" stroke="#6D0DFC"/><circle r="24" transform="scale(-1 1) rotate(45 -87 -36)" stroke="#fff"/><path d="M57 31a3 3 0 1 1-1-7 3 3 0 0 1 1 7Z" fill="#fff" stroke="#121212"/><path d="M68 71a3 3 0 1 1-1-7 3 3 0 0 1 1 7Z" fill="#6D0DFC" stroke="#121212"/><path d="M16 20a3 3 0 1 1-1-7 3 3 0 0 1 1 7Z" fill="#fff" stroke="#121212"/><path d="M28 60a3 3 0 1 1-1-7 3 3 0 0 1 1 7Z" fill="#6D0DFC" stroke="#121212"/><path d="M50 56a7 7 0 1 1 0-14 7 7 0 0 1 0 14Z" fill="#fff" stroke="#121212"/><path d="M33 40a7 7 0 1 1 0-14 7 7 0 0 1 0 14Z" fill="#6D0DFC" stroke="#121212"/></g></svg>