<svg width="84" height="84" viewBox="0 0 84 84" fill="none" xmlns="http://www.w3.org/2000/svg">
<path d="M65 19H19V65H65V19Z" fill="#121212" stroke="#6D0DFC" stroke-width="2"/>
<path d="M78 6H32V52H78V6Z" stroke="white" stroke-width="2"/>
<path d="M52 32H6V78H52V32Z" stroke="white" stroke-width="2"/>
<path d="M19 22.5C20.933 22.5 22.5 20.933 22.5 19C22.5 17.067 20.933 15.5 19 15.5C17.067 15.5 15.5 17.067 15.5 19C15.5 20.933 17.067 22.5 19 22.5Z" fill="#6D0DFC" stroke="#121212" stroke-width="2"/>
<path d="M19 68.5C20.933 68.5 22.5 66.933 22.5 65C22.5 63.067 20.933 61.5 19 61.5C17.067 61.5 15.5 63.067 15.5 65C15.5 66.933 17.067 68.5 19 68.5Z" fill="#6D0DFC" stroke="#121212" stroke-width="2"/>
<path d="M65 22.5C66.933 22.5 68.5 20.933 68.5 19C68.5 17.067 66.933 15.5 65 15.5C63.067 15.5 61.5 17.067 61.5 19C61.5 20.933 63.067 22.5 65 22.5Z" fill="#6D0DFC" stroke="#121212" stroke-width="2"/>
<path d="M42 45.5C43.933 45.5 45.5 43.933 45.5 42C45.5 40.067 43.933 38.5 42 38.5C40.067 38.5 38.5 40.067 38.5 42C38.5 43.933 40.067 45.5 42 45.5Z" fill="#6D0DFC" stroke="#121212" stroke-width="2"/>
<path d="M65 68.5C66.933 68.5 68.5 66.933 68.5 65C68.5 63.067 66.933 61.5 65 61.5C63.067 61.5 61.5 63.067 61.5 65C61.5 66.933 63.067 68.5 65 68.5Z" fill="#6D0DFC" stroke="#121212" stroke-width="2"/>
</svg>
