<svg width="84" height="84" viewBox="0 0 84 84" fill="none" xmlns="http://www.w3.org/2000/svg">
<g clip-path="url(#clip0_1447_17538)">
<path d="M41.8077 79.6149C20.375 79.6149 3.0003 62.2402 3.00031 40.8074C3.00031 19.3747 20.375 2 41.8077 2C63.2405 2 80.6152 19.3747 80.6152 40.8074C80.6152 62.2402 63.2405 79.6149 41.8077 79.6149Z" fill="#121212" stroke="white" stroke-width="2"/>
<path d="M3.87665 30.0933C14.101 39.9724 28.0041 46.0475 43.3219 46.0475C57.6942 46.0475 70.8212 40.6992 80.8325 31.8784" fill="#121212"/>
<path d="M3.87665 30.0933C14.101 39.9724 28.0041 46.0475 43.3219 46.0475C57.6942 46.0475 70.8212 40.6992 80.8325 31.8784" stroke="#595A5B" stroke-width="2"/>
<path d="M37.2132 79.3955C37.3321 72.4529 38.9476 65.4246 42.219 58.7801C49.8871 43.2054 64.7738 33.5559 80.8369 31.8922" fill="#121212"/>
<path d="M37.2132 79.3955C37.3321 72.4529 38.9476 65.4246 42.219 58.7801C49.8871 43.2054 64.7738 33.5559 80.8369 31.8922" stroke="#595A5B" stroke-width="2"/>
<path d="M61.5162 6.77979C42.8145 14.6592 29.6859 33.1607 29.6859 54.7285C29.6859 64.347 32.3108 71.6601 36.8629 79.3887" stroke="#D9A21F" stroke-width="2"/>
<path d="M37.0374 79.6768C37.0374 68.3603 46.2138 59.1865 57.5336 59.1865C63.2177 59.1865 68.3614 61.4997 72.0742 65.2358" fill="#121212"/>
<path d="M37.0374 79.6768C37.0374 68.3603 46.2138 59.1865 57.5336 59.1865C63.2177 59.1865 68.3614 61.4997 72.0742 65.2358" stroke="#595A5B" stroke-width="2"/>
<path d="M61.5484 10.3809C63.4814 10.3809 65.0484 8.81386 65.0484 6.88086C65.0484 4.94786 63.4814 3.38086 61.5484 3.38086C59.6154 3.38086 58.0484 4.94786 58.0484 6.88086C58.0484 8.81386 59.6154 10.3809 61.5484 10.3809Z" fill="#D9A21F" stroke="#121212" stroke-width="2"/>
<path d="M37.0386 83.0645C38.9716 83.0645 40.5386 81.4974 40.5386 79.5645C40.5386 77.6315 38.9716 76.0645 37.0386 76.0645C35.1056 76.0645 33.5386 77.6315 33.5386 79.5645C33.5386 81.4974 35.1056 83.0645 37.0386 83.0645Z" fill="#D9A21F" stroke="#1D2023" stroke-width="2"/>
<path d="M72.1128 67.8516C74.0458 67.8516 75.6128 66.2846 75.6128 64.3516C75.6128 62.4186 74.0458 60.8516 72.1128 60.8516C70.1798 60.8516 68.6128 62.4186 68.6128 64.3516C68.6128 66.2846 70.1798 67.8516 72.1128 67.8516Z" fill="#D9A21F" stroke="#121212" stroke-width="2"/>
<path d="M4.5 33.6226C6.433 33.6226 8 32.0556 8 30.1226C8 28.1896 6.433 26.6226 4.5 26.6226C2.567 26.6226 1 28.1896 1 30.1226C1 32.0556 2.567 33.6226 4.5 33.6226Z" fill="#D9A21F" stroke="#121212" stroke-width="2"/>
<path d="M80.9873 36.1582C82.9203 36.1582 84.4873 34.5912 84.4873 32.6582C84.4873 30.7252 82.9203 29.1582 80.9873 29.1582C79.0543 29.1582 77.4873 30.7252 77.4873 32.6582C77.4873 34.5912 79.0543 36.1582 80.9873 36.1582Z" fill="#D9A21F" stroke="#121212" stroke-width="2"/>
</g>
<defs>
<clipPath id="clip0_1447_17538">
<rect width="84" height="84" fill="white"/>
</clipPath>
</defs>
</svg>
