<svg width="84" height="84" viewBox="0 0 84 84" fill="none" xmlns="http://www.w3.org/2000/svg">
<path d="M41.8389 3V80.837V3Z" fill="black"/>
<path d="M41.8389 3V80.837" stroke="white" stroke-width="2" stroke-miterlimit="10"/>
<path d="M80.6776 39.4297L3 44.4077L80.6776 39.4297Z" fill="black"/>
<path d="M80.6776 39.4297L3 44.4077" stroke="white" stroke-width="2" stroke-miterlimit="10"/>
<path d="M69.3394 14.4185L14.3389 69.419L69.3394 14.4185Z" fill="black"/>
<path d="M69.3394 14.4185L14.3389 69.419" stroke="white" stroke-width="2" stroke-miterlimit="10"/>
<path d="M70.1877 68.5434L13.4902 15.2939L70.1877 68.5434Z" fill="black"/>
<path d="M70.1877 68.5434L13.4902 15.2939" stroke="white" stroke-width="2" stroke-miterlimit="10"/>
<path d="M76.7369 24.8716L6.94092 58.9655L76.7369 24.8716Z" fill="black"/>
<path d="M76.7369 24.8716L6.94092 58.9655" stroke="white" stroke-width="2" stroke-miterlimit="10"/>
<path d="M58.8859 76.8166L24.792 6.85986L58.8859 76.8166Z" fill="black"/>
<path d="M58.8859 76.8166L24.792 6.85986" stroke="white" stroke-width="2" stroke-miterlimit="10"/>
<path d="M78.6669 54.6235L5.01123 29.2139L78.6669 54.6235Z" fill="black"/>
<path d="M78.6669 54.6235L5.01123 29.2139" stroke="white" stroke-width="2" stroke-miterlimit="10"/>
<path d="M29.1343 78.7465L54.5439 5.09082L29.1343 78.7465Z" fill="black"/>
<path d="M29.1343 78.7465L54.5439 5.09082" stroke="#40E7FF" stroke-width="2" stroke-miterlimit="10"/>
<path d="M14.5835 19.8535C16.5165 19.8535 18.0835 18.2865 18.0835 16.3535C18.0835 14.4205 16.5165 12.8535 14.5835 12.8535C12.6505 12.8535 11.0835 14.4205 11.0835 16.3535C11.0835 18.2865 12.6505 19.8535 14.5835 19.8535Z" fill="#40E7FF" stroke="#121212" stroke-width="2"/>
<path d="M33.8672 68.0273C35.8002 68.0273 37.3672 66.4603 37.3672 64.5273C37.3672 62.5943 35.8002 61.0273 33.8672 61.0273C31.9342 61.0273 30.3672 62.5943 30.3672 64.5273C30.3672 66.4603 31.9342 68.0273 33.8672 68.0273Z" fill="#40E7FF" stroke="#121212" stroke-width="2"/>
<path d="M49.5029 22.3887C51.4359 22.3887 53.0029 20.8217 53.0029 18.8887C53.0029 16.9557 51.4359 15.3887 49.5029 15.3887C47.5699 15.3887 46.0029 16.9557 46.0029 18.8887C46.0029 20.8217 47.5699 22.3887 49.5029 22.3887Z" fill="#40E7FF" stroke="#121212" stroke-width="2"/>
<path d="M79.2383 43.5181C81.1713 43.5181 82.7383 41.9511 82.7383 40.0181C82.7383 38.0851 81.1713 36.5181 79.2383 36.5181C77.3053 36.5181 75.7383 38.0851 75.7383 40.0181C75.7383 41.9511 77.3053 43.5181 79.2383 43.5181Z" fill="#40E7FF" stroke="#121212" stroke-width="2"/>
<path d="M41.4736 46C43.4066 46 44.9736 44.433 44.9736 42.5C44.9736 40.567 43.4066 39 41.4736 39C39.5406 39 37.9736 40.567 37.9736 42.5C37.9736 44.433 39.5406 46 41.4736 46Z" fill="black" stroke="black" stroke-width="2"/>
</svg>
