<svg width="31" height="55" viewBox="0 0 31 55" fill="none" xmlns="http://www.w3.org/2000/svg">
<circle cx="10" cy="45" r="10" fill="black"/>
<rect x="9" width="2" height="41" fill="#6D0DFC"/>
<rect x="6" y="41" width="8" height="8" fill="#6D0DFC"/>
<rect x="11" width="10" height="18" fill="#6D0DFC"/>
<rect x="21" width="10" height="2" fill="#6D0DFC"/>
<rect x="21" y="2" width="8" height="2" fill="#6D0DFC"/>
<rect x="21" y="4" width="6" height="2" fill="#6D0DFC"/>
<rect x="21" y="6" width="4" height="2" fill="#6D0DFC"/>
<rect x="21" y="8" width="2" height="2" fill="#6D0DFC"/>
<rect width="10" height="2" transform="matrix(1 0 0 -1 21 18)" fill="#6D0DFC"/>
<rect width="8" height="2" transform="matrix(1 0 0 -1 21 16)" fill="#6D0DFC"/>
<rect width="6" height="2" transform="matrix(1 0 0 -1 21 14)" fill="#6D0DFC"/>
<rect width="4" height="2" transform="matrix(1 0 0 -1 21 12)" fill="#6D0DFC"/>
<rect width="2" height="2" transform="matrix(1 0 0 -1 21 10)" fill="#6D0DFC"/>
</svg>
